<?xml version="1.0" standalone="no"?>
<!DOCTYPE svg PUBLIC "-//W3C//DTD SVG 20010904//EN"
 "http://www.w3.org/TR/2001/REC-SVG-20010904/DTD/svg10.dtd">
<svg version="1.0" xmlns="http://www.w3.org/2000/svg"
 width="612.000000pt" height="612.000000pt" viewBox="0 0 612.000000 612.000000"
 preserveAspectRatio="xMidYMid meet">

<g transform="translate(0.000000,612.000000) scale(0.100000,-0.100000)"
fill="#000000" stroke="none">
<path d="M0 3060 l0 -3060 3060 0 3060 0 0 3060 0 3060 -3060 0 -3060 0 0
-3060z m3149 2169 c48 -6 122 -18 166 -26 44 -8 96 -17 115 -19 19 -3 53 -9
75 -14 22 -6 54 -12 70 -13 17 -2 44 -11 62 -20 18 -9 38 -17 45 -17 18 -1
128 -107 128 -124 0 -7 7 -19 15 -26 8 -7 15 -21 15 -31 0 -15 -8 -19 -37 -20
-24 -1 -29 -3 -15 -6 29 -6 28 -16 -3 -33 -29 -16 -17 -30 27 -30 21 0 25 -4
21 -19 -3 -13 3 -25 21 -36 22 -15 26 -25 26 -66 l0 -49 -45 0 c-25 0 -45 -4
-45 -10 0 -5 7 -10 15 -10 28 0 15 -17 -17 -25 l-33 -7 40 -13 c22 -6 41 -19
43 -27 2 -9 16 -21 31 -28 30 -12 51 -61 51 -118 0 -17 4 -33 9 -37 6 -3 10
-22 10 -43 0 -20 5 -64 12 -97 6 -33 13 -97 16 -142 4 -74 7 -85 30 -103 14
-11 34 -20 44 -20 11 0 19 -4 19 -10 0 -5 23 -10 50 -10 28 0 50 -4 50 -10 0
-5 18 -10 39 -10 22 0 41 -4 43 -9 2 -4 73 -16 158 -26 232 -25 272 -31 305
-43 17 -6 55 -13 85 -15 55 -3 55 -3 61 -41 8 -49 25 -66 34 -35 7 22 8 22 21
4 13 -17 14 -15 14 26 0 29 3 39 9 30 5 -7 13 -11 19 -7 5 3 22 -6 36 -19 15
-14 34 -25 42 -25 7 0 14 -7 14 -15 0 -9 6 -18 14 -21 18 -7 66 -79 66 -98 0
-8 7 -19 16 -24 24 -14 33 -234 30 -757 -2 -446 -2 -450 -25 -493 -31 -61
-101 -128 -163 -156 l-53 -25 -3 42 -4 42 -13 -30 c-9 -21 -14 -25 -15 -12 -2
9 -4 22 -5 27 -1 6 -3 15 -4 20 0 6 -5 10 -10 10 -5 0 -13 -25 -16 -55 -4 -30
-12 -58 -19 -62 -6 -4 -36 -10 -66 -14 -30 -4 -98 -15 -150 -24 -78 -14 -131
-16 -296 -12 -194 6 -249 3 -239 -13 2 -4 -7 -5 -20 -2 -14 2 -41 1 -60 -2
l-36 -7 1 -57 c2 -70 -26 -309 -40 -346 -5 -15 -10 -45 -10 -66 0 -21 -4 -42
-10 -45 -5 -3 -10 -15 -10 -26 0 -10 5 -19 10 -19 6 0 10 -4 10 -10 0 -5 -8
-10 -17 -10 -14 0 -15 -2 -5 -9 18 -11 -6 -21 -56 -22 -20 -1 -48 -4 -62 -9
l-25 -7 30 -7 c48 -12 51 -14 28 -21 -34 -11 -28 -22 15 -30 29 -6 33 -9 18
-14 -17 -7 -17 -8 -2 -24 10 -9 22 -17 27 -17 13 0 11 -44 -3 -58 -8 -8 -8
-15 1 -26 10 -12 6 -15 -21 -21 -74 -15 -88 -27 -46 -41 20 -6 20 -8 5 -19
-16 -12 -16 -13 2 -18 14 -3 19 -11 16 -26 -2 -13 3 -22 16 -26 15 -5 17 -10
10 -19 -6 -7 -8 -16 -5 -19 3 -3 -15 -27 -40 -53 -25 -25 -46 -49 -46 -53 -1
-8 -68 -51 -80 -51 -5 0 -27 -9 -48 -20 -35 -19 -92 -29 -267 -48 -111 -12
-404 4 -540 28 -66 13 -135 25 -152 27 -45 7 -41 21 7 29 29 5 40 11 40 24 0
15 -13 19 -82 25 -97 8 -148 26 -148 52 0 15 -2 16 -10 3 -8 -13 -13 -9 -12
10 0 3 -12 5 -28 6 -27 1 -28 0 -17 -25 6 -14 17 -34 25 -43 14 -16 13 -18 -4
-18 -20 0 -114 81 -114 99 0 5 -10 17 -22 25 -17 12 -18 16 -6 16 22 0 32 40
10 41 -10 0 -5 6 12 14 l30 13 -35 7 -34 8 33 9 c35 9 39 29 6 34 -82 12 -98
23 -69 47 6 6 6 10 -2 14 -7 2 -13 15 -13 29 0 17 7 25 25 30 24 6 29 23 10
36 -5 4 5 10 23 14 32 7 45 24 17 24 -8 0 -15 5 -15 10 0 6 9 10 20 10 11 0
20 4 20 9 0 13 -26 21 -68 22 -34 0 -92 17 -65 18 6 1 10 7 9 14 -6 29 -16
110 -27 220 -7 64 -16 117 -21 117 -4 0 -8 35 -8 78 0 66 -3 80 -20 92 -11 8
-20 22 -20 31 0 9 -9 28 -21 43 -19 24 -26 26 -99 26 -43 0 -81 4 -84 9 -5 8
-120 24 -165 22 -13 -1 -29 3 -35 8 -6 5 -38 11 -71 14 -168 16 -200 21 -206
29 -3 5 -43 12 -88 15 -101 7 -111 27 -13 29 657 11 900 18 915 26 9 5 17 13
17 18 0 6 -183 10 -494 10 -432 0 -495 2 -506 15 -7 9 -20 15 -29 14 -51 -5
-80 2 -75 16 5 11 2 13 -10 9 -11 -4 -16 -1 -16 11 0 9 -4 14 -9 10 -5 -3 -12
3 -14 12 -3 10 -5 1 -6 -19 -1 -26 5 -44 19 -58 11 -11 20 -24 20 -29 0 -5 12
-14 28 -19 l27 -10 -27 -1 c-16 -1 -28 4 -28 9 0 6 -7 10 -16 10 -19 0 -134
118 -134 137 0 8 -7 28 -17 46 -9 18 -18 46 -20 62 -9 72 -5 1133 5 1151 5 10
18 38 28 61 11 24 25 43 32 43 6 0 12 7 12 15 0 8 5 15 10 15 6 0 34 16 63 35
71 48 87 46 88 -7 2 -30 3 -35 6 -15 5 33 14 34 32 6 17 -28 31 -9 31 43 0 32
4 37 28 42 140 30 622 59 622 38 0 -16 43 -15 59 1 11 10 14 10 18 0 7 -19 23
-16 44 8 11 13 25 19 34 15 20 -7 56 29 49 49 -4 9 2 23 15 34 24 21 27 37 9
44 -10 3 -10 7 -2 18 6 8 14 37 17 64 4 28 9 61 11 75 12 59 26 168 26 208 0
25 5 42 12 42 6 0 8 3 4 7 -4 4 8 13 26 19 24 8 33 17 32 33 0 17 5 21 30 22
17 0 39 4 50 8 15 6 10 10 -25 21 -28 8 -37 15 -26 18 32 7 17 22 -23 22 l-40
0 0 53 c0 45 3 54 23 62 12 6 23 20 25 32 2 15 13 24 35 29 29 6 30 7 13 20
-11 7 -24 15 -30 18 -7 3 -6 8 4 15 12 8 8 11 -19 11 l-34 0 7 41 c9 58 39
111 79 142 20 15 41 32 49 40 29 28 152 70 241 82 117 16 405 18 516 4z m1921
-569 c0 -15 -7 -20 -29 -20 -17 0 -33 5 -36 10 -11 17 5 30 36 30 22 0 29 -5
29 -20z m-23 -66 c-3 -3 -12 -4 -19 -1 -8 3 -5 6 6 6 11 1 17 -2 13 -5z
m-1027 -2478 c0 -3 -4 -8 -10 -11 -5 -3 -10 -1 -10 4 0 6 5 11 10 11 6 0 10
-2 10 -4z m-2905 -616 c10 -17 -16 -41 -39 -38 -13 2 -22 12 -24 26 -3 19 1
22 27 22 16 0 33 -5 36 -10z"/>
<path d="M3340 4920 c-58 -3 -85 -7 -60 -8 31 -1 41 -5 34 -12 -6 -6 -57 -12
-112 -13 -71 -1 -103 -6 -107 -14 -4 -12 -37 -18 -46 -8 -9 8 -514 14 -528 6
-24 -15 74 -22 289 -21 325 2 517 -2 490 -10 -14 -4 -78 -13 -143 -20 -124
-14 -167 -37 -49 -27 37 3 76 2 86 -2 48 -19 -24 -26 -284 -27 -151 -1 -281
-2 -287 -3 -8 -1 -13 -16 -13 -41 l0 -40 -60 0 c-33 0 -60 -4 -60 -10 0 -5 9
-10 20 -10 11 0 20 -4 20 -10 0 -5 -11 -10 -25 -10 -34 0 -32 -18 3 -26 44 -9
52 -13 51 -21 -4 -23 4 -31 37 -38 20 -3 42 -12 48 -18 11 -11 29 -82 43 -167
3 -19 10 -41 15 -47 8 -10 87 -13 334 -13 l324 0 0 -25 c0 -29 15 -33 24 -7 3
9 10 24 15 32 5 8 12 24 16 35 5 16 8 17 15 5 7 -10 10 1 10 38 0 28 4 52 9
52 9 0 21 36 27 79 3 28 20 41 52 41 15 0 26 9 32 25 7 19 17 25 39 25 43 0
47 17 9 34 -27 12 -29 15 -11 15 12 1 25 6 28 11 4 6 -17 10 -55 10 l-62 0 4
45 c2 25 -1 45 -5 45 -20 0 5 18 33 23 21 5 30 12 30 26 0 11 -6 22 -12 24 -7
3 4 6 24 6 43 1 68 9 68 23 0 5 -4 7 -8 4 -5 -3 -15 5 -22 18 -9 18 -23 25
-64 30 -28 3 -64 5 -81 4 -16 -1 -77 -5 -135 -8z"/>
<path d="M2625 4810 c3 -5 36 -10 73 -9 47 0 61 3 47 9 -29 12 -128 12 -120 0z"/>
<path d="M4855 3638 c-16 -10 -142 -13 -563 -13 -419 0 -539 -3 -526 -12 9 -6
44 -14 77 -17 68 -6 847 -22 940 -19 31 1 57 -2 57 -5 0 -4 2 -225 3 -492 3
-448 7 -530 26 -530 4 0 14 30 21 68 l15 67 6 -45 c5 -38 15 350 10 404 0 10
4 24 9 31 8 9 8 15 0 20 -7 4 -10 87 -10 253 1 232 0 247 -18 261 -11 9 -21
22 -23 29 -3 10 -8 10 -24 0z m53 -119 c-3 -33 -4 -33 -8 8 -3 23 -2 39 3 34
5 -5 7 -24 5 -42z m-3 -439 c3 -5 2 -10 -4 -10 -5 0 -13 5 -16 10 -3 6 -2 10
4 10 5 0 13 -4 16 -10z"/>
<path d="M2196 3611 c-6 -9 48 -21 95 -21 14 0 34 7 45 15 17 13 12 14 -58 15
-42 0 -79 -4 -82 -9z"/>
<path d="M1250 3588 c-5 -15 -7 -23 -14 -63 -15 -76 -20 -83 -27 -35 -5 36
-13 -246 -11 -390 0 -19 2 -154 3 -300 1 -146 4 -250 6 -232 6 48 20 39 25
-18 5 -52 13 -69 26 -56 4 4 9 125 12 269 6 257 6 259 8 75 2 -185 2 -187 27
-212 22 -22 31 -24 77 -19 29 3 56 10 59 15 3 5 35 12 70 14 66 5 131 19 161
35 10 5 39 9 65 9 34 0 44 3 33 10 -12 7 -11 10 5 15 11 4 27 11 35 16 8 5 23
12 33 15 25 9 21 24 -8 24 l-25 0 0 320 c0 298 1 320 18 321 38 3 -88 17 -163
18 -44 1 -109 6 -145 12 -153 25 -171 26 -206 8 -18 -9 -36 -14 -39 -11 -3 3
-6 28 -6 56 -1 49 -14 119 -19 104z m27 -370 c-2 -35 -3 -7 -3 62 0 69 1 97 3
63 2 -35 2 -91 0 -125z m-53 -113 c3 -8 1 -15 -4 -15 -6 0 -10 7 -10 15 0 8 2
15 4 15 2 0 6 -7 10 -15z"/>
<path d="M4683 3508 c-24 -5 -43 -13 -43 -19 0 -5 -24 -9 -53 -9 -30 0 -57 -3
-61 -7 -12 -12 -79 -33 -140 -43 -32 -5 -71 -15 -87 -22 -28 -13 -29 -14 -29
-90 0 -63 3 -78 15 -78 11 0 15 -11 15 -40 0 -22 5 -40 10 -40 6 0 10 -47 10
-120 0 -73 -4 -120 -10 -120 -5 0 -10 -18 -10 -40 0 -29 -4 -40 -15 -40 -23 0
-21 -76 2 -84 14 -6 15 -9 4 -15 -17 -11 3 -25 39 -27 36 -2 223 -23 300 -34
75 -11 161 -13 184 -4 14 5 16 35 16 229 0 169 -3 225 -12 229 -10 5 -10 7 0
12 9 4 12 51 12 182 0 101 -4 171 -9 164 -6 -10 -10 -9 -14 7 -4 17 -13 21
-44 20 -21 -1 -57 -5 -80 -11z"/>
<path d="M1150 3101 c0 -12 5 -21 10 -21 6 0 10 6 10 14 0 8 -4 18 -10 21 -5
3 -10 -3 -10 -14z"/>
<path d="M4950 3055 c0 -14 5 -25 10 -25 6 0 10 11 10 25 0 14 -4 25 -10 25
-5 0 -10 -11 -10 -25z"/>
<path d="M3846 2321 c-21 -8 -15 -15 24 -24 24 -6 60 6 50 17 -11 10 -56 15
-74 7z"/>
<path d="M2713 1823 c-16 -39 -44 -141 -50 -186 -3 -20 -9 -40 -14 -43 -5 -3
-9 -16 -9 -30 0 -13 -6 -24 -12 -24 -10 0 -10 -2 0 -9 16 -9 -30 -21 -83 -21
-39 0 -65 -8 -65 -21 0 -5 11 -9 25 -9 14 0 25 -4 25 -10 0 -5 -9 -10 -20 -10
-30 0 -24 -18 8 -22 15 -2 26 -8 24 -15 -1 -7 3 -13 9 -13 5 0 8 -4 5 -9 -4
-5 7 -12 23 -16 16 -3 28 -11 28 -18 -1 -34 5 -47 20 -47 15 0 14 -2 -2 -14
-18 -13 -14 -14 35 -12 62 2 182 26 191 38 9 14 329 28 481 21 132 -5 148 -4
154 10 4 10 17 17 34 17 34 0 68 29 49 40 -7 5 0 10 20 15 34 7 38 14 19 33
-9 9 -7 12 10 12 12 0 22 4 22 9 0 11 -35 21 -85 22 -49 1 -70 9 -71 29 -1 46
-17 100 -30 100 -11 0 -14 16 -14 64 0 44 -5 67 -15 76 -8 7 -15 18 -15 25 0
7 -7 18 -15 25 -12 10 -15 10 -15 -1 -1 -10 -4 -9 -14 4 -17 22 -86 24 -86 2
0 -12 -16 -15 -80 -15 -47 0 -80 -4 -80 -10 0 -6 -33 -10 -80 -10 -47 0 -80 4
-80 10 0 6 -18 10 -40 10 -29 0 -40 4 -40 15 0 12 -15 15 -78 15 -75 0 -77 -1
-89 -27z"/>
<path d="M2547 1269 c-32 -4 -60 -9 -63 -12 -3 -3 14 -11 37 -18 52 -14 508
-4 523 12 12 11 56 12 56 2 0 -12 453 -15 481 -4 23 9 22 10 -11 12 -19 2
-132 3 -250 4 -118 0 -327 2 -465 5 -137 3 -276 2 -308 -1z"/>
<path d="M2585 1210 c-21 -5 -6 -8 54 -9 46 0 82 1 80 3 -10 8 -107 13 -134 6z"/>
</g>
</svg>
